PathFileType	4	(X/Y/Z)	C:/Users/beibeiliu/ov580/test_trc/User3\sequence.4_training_dense_left.trc
DataRate	CameraRate	NumFrames	NumMarkers	Units	OrigDataRate	OrigDataStartFrame	OrigNumFrames
120	120	12	19	mm	120	79	209
Frame#	Time	ThumbCMC			ThumbMCP			ThumbIP			ThumbTip			IndexMCP			IndexPIP			IndexTip			MiddleMCP			MiddlePIP			MiddleTip			RingMCP			RingPIP			RingTip			PinkyMCP			PinkyPIP			PinkyTip			BackHand1			BackHand2			BackHand3	
		X0	Y0	Z0	X1	Y1	Z1	X2	Y2	Z2	X3	Y3	Z3	X4	Y4	Z4	X5	Y5	Z5	X6	Y6	Z6	X7	Y7	Z7	X8	Y8	Z8	X9	Y9	Z9	X10	Y10	Z10	X11	Y11	Z11	X12	Y12	Z12	X13	Y13	Z13	X14	Y14	Z14	X15	Y15	Z15	X16	Y16	Z16	X17	Y17	Z17	X18	Y18	Z18	
78	0.65	-192.423	25.0066	13.1189	-180.312	29.2379	-14.5227	-165.765	34.7508	-36.6558	-154.57	38.6154	-54.681	-232.159	37.9818	-56.3264	-230.838	44.6329	-80.3089	-233.125	45.5825	-105.355	-258.093	27.3675	-53.3078	-262.275	31.5537	-86.2837	-263.133	30.3334	-115.374	-267.936	10.5409	-43.707	-280.516	8.97756	-70.7846	-284.234	5.19242	-94.641	-273.192	-9.632	-28.4266	-284.952	-11.4706	-53.8632	-290.225	-15.7325	-74.3905	-256.689	11.8197	6.40266	-253.591	8.68645	32.0581	-229.527	29.9662	11.7588	
79	0.658333	-188.212	21.1445	13.4	-172.497	25.4858	-10.4944	-155.325	32.2908	-34.0059	-144.276	34.5922	-51.0246	-224.553	41.0712	-52.2061	-224.268	48.3697	-81.9475	-223.081	53.1644	-101.983	-250.56	36.1007	-53.1417	-252.235	41.6962	-79.5433	-257.721	40.6455	-111.073	-263.867	22.1611	-46.3805	-274.576	21.1538	-68.4997	-278.615	20.4943	-93.7831	-271.948	1.55851	-28.2981	-283.61	1.20782	-47.5502	-289.121	-0.650397	-70.7877	-253.594	16.5183	8.38048	-249.128	16.3661	33.335	-224.054	33.5291	14.0251	
80	0.666667	-184.045	17.2791	15.3915	-164.158	20.5796	-5.01767	-152.033	25.6984	-31.9963	-139.115	25.6213	-48.1579	-215.052	45.4246	-53.7182	-214.149	50.9544	-80.0215	-210.528	56.064	-103.236	-241.435	41.6667	-51.8222	-245.671	48.3258	-80.0126	-246.319	49.2486	-109.473	-254.636	27.7919	-42.4325	-263.122	31.7753	-65.7061	-270.092	31.0648	-95.8664	-271.489	9.83178	-28.5276	-275.472	12.7569	-47.0925	-286.496	12.7011	-69.1689	-251.37	24.2413	5.29506	-241.56	18.6632	34.8654	-215.939	33.5226	16.7575	
81	0.675	-174.206	14.8191	18.8425	-157.942	16.1242	-4.95443	-142.771	19.9541	-29.219	-131.253	17.7625	-45.88	-204.07	43.4959	-49.9664	-204.026	49.6033	-75.0814	-203.323	54.0026	-101.822	-228.44	44.9788	-51.8134	-230.837	52.0609	-78.9367	-238.807	52.6555	-109.001	-248.918	30.712	-41.5673	-257.991	36.2204	-64.3423	-262.169	38.3007	-95.7569	-260.745	17.1274	-29.8519	-269.689	21.328	-47.5148	-282.335	22.3074	-69.6277	-244.001	25.5245	8.34905	-240.876	18.9568	35.2338	-209.408	32.17	17.0126	
82	0.683333	-169.832	10.5476	20.4761	-154.188	8.68967	0.268994	-137.108	10.8148	-28.2324	-126.978	10.02	-46.3479	-193.095	42.0141	-48.9187	-190.059	46.3787	-73.6616	-192.024	49.3308	-98.6384	-219.839	43.163	-47.6545	-221.817	50.6345	-80.3447	-226.477	51.8415	-110.076	-240.33	33.2539	-41.7037	-249.32	37.9091	-64.3428	-250.831	41.132	-92.5703	-253.825	16.7457	-24.6881	-263.996	24.3405	-45.3714	-272.238	26.5923	-66.7478	-233.403	28.8522	6.47427	-231.422	22.2289	36.8059	-203.03	31.2961	21.1357	
83	0.691667	-165.91	2.71631	24.6902	-144.525	1.1925	1.36857	-132.048	1.11648	-24.6833	-118.72	-1.69751	-44.0765	-183.228	36.3435	-46.3904	-180.82	41.0638	-73.5521	-178.696	43.8553	-97.537	-212.385	42.8821	-50.41	-213.647	46.9355	-77.517	-214.874	48.1946	-106.823	-230.534	32.8234	-39.3485	-238.158	38.9862	-63.3813	-244.087	40.9839	-92.3331	-248.636	18.4706	-24.4085	-257.382	25.0967	-44.1138	-260.082	30.803	-68.7252	-228.551	26.6342	8.29165	-227.863	19.8498	38.2603	-194.056	28.4592	20.4995	
84	0.7	-157.643	-1.37955	22.8261	-138.094	-6.24742	1.21247	-120.043	-8.39713	-21.9063	-111.654	-13.7661	-40.1536	-174.279	30.4564	-45.1158	-171.904	33.5234	-76.0285	-166.486	35.2613	-96.215	-198.228	37.4055	-50.8669	-201.693	42.2684	-75.2533	-199.912	43.6941	-108.151	-222.831	31.0288	-40.3502	-226.19	36.9245	-67.5724	-230.877	37.7867	-94.1884	-237.216	20.1743	-26.0645	-247.913	25.1399	-45.3088	-249.33	30.3399	-68.1128	-221.14	27.0708	9.16398	-218.306	17.7602	40.5697	-184.724	24.2866	21.3984	
85	0.708333	-151.585	-9.80964	26.687	-134.831	-14.6967	2.86996	-119.051	-19.5859	-19.5826	-105.287	-24.7004	-38.1071	-166.649	22.5161	-47.0939	-162.475	23.6071	-70.6105	-158.421	24.2531	-96.9568	-188.263	30.5419	-48.515	-187.669	33.8889	-79.2332	-187.798	33.1017	-107.538	-214.898	26.6601	-40.9279	-214.223	31.2889	-66.7382	-222.778	30.7624	-95.2599	-232.95	18.7455	-27.0689	-236.83	22.2941	-45.8822	-243.473	26.7734	-72.7511	-212.793	21.5783	11.0361	-209.773	17.2357	37.1209	-176.518	17.4676	24.554	
86	0.716667	-148.115	-15.7847	29.1112	-127.469	-22.6513	6.18179	-109.572	-29.0001	-13.8284	-97.1964	-34.33	-36.5492	-159.47	13.5491	-44.8363	-149.471	14.7016	-72.2835	-147.381	13.2506	-98.9649	-183.318	22.1082	-47.878	-178.859	23.3574	-76.1569	-179.566	21.9949	-112.341	-203.52	18.6299	-41.785	-208.054	23.0466	-70.175	-212.157	21.6717	-93.0528	-221.254	11.3261	-26.5925	-225.24	16.4078	-50.441	-234.698	18.7458	-71.3897	-205.11	15.4489	11.8418	-202.27	14.756	36.6617	-168.711	13.4995	23.7467	
87	0.725	-141.224	-22.2944	31.4135	-119.86	-30.1496	9.88137	-107.036	-36.0456	-13.2393	-90.2135	-44.0118	-28.3516	-150.698	5.33347	-46.2114	-144.107	4.22902	-70.6621	-138.975	1.04751	-97.0587	-171.361	13.4261	-50.651	-167.943	12.9083	-77.6778	-168.336	8.03184	-107.675	-198.866	11.2976	-41.6926	-198.061	13.281	-67.7992	-202.322	9.89595	-96.0913	-214.491	3.77248	-26.6561	-221.568	8.99568	-50.9965	-226.725	9.12517	-72.1504	-198.476	12.4414	10.795	-198.609	8.9718	40.927	-163.961	7.71693	24.2097	
88	0.733333	-135.51	-26.5923	31.9088	-116.561	-35.4665	13.6231	-95.7173	-43.3294	-10.5409	-86.2517	-52.0385	-28.1586	-145.218	-4.28057	-42.4306	-134.809	-7.10898	-72.5484	-134.004	-10.5881	-94.2005	-168.034	5.28207	-52.3993	-164.068	2.68891	-79.8743	-160.135	-3.61343	-106.692	-193.127	1.71243	-40.36	-191.524	2.48769	-66.4728	-196.427	-1.59531	-93.7398	-207.992	-2.95466	-26.9018	-212.877	-0.871367	-48.2301	-221.446	-0.290046	-70.4096	-189.784	6.85388	12.0387	-193.481	6.30547	39.0506	-157.095	1.61822	20.6942	
89	0.741667	-131.727	-32.2086	33.9416	-111.867	-41.4439	16.2047	-94.4178	-51.0607	-6.56157	-81.5397	-60.5918	-18.3258	-138.739	-13.4312	-42.2536	-130.085	-17.8697	-70.6932	-123.514	-23.8669	-94.9998	-160.772	-3.69158	-51.492	-154.625	-8.12553	-78.4054	-155.275	-14.7608	-107.415	-183.354	-5.83784	-41.9324	-186.646	-5.7589	-67.2606	-187.44	-12.7556	-93.4088	-205.476	-10.1176	-24.6641	-207.617	-8.98026	-49.4065	-210.711	-10.9839	-74.0684	-186.9	1.12959	11.0771	-189.119	2.63427	39.7169	-151.265	-2.85577	22.2826	
